<svg xmlns="http://www.w3.org/2000/svg" viewBox="0 0 16 16" fill="currentColor">
  <!-- Tableau / grille (représente la couche SDE) -->
  <path d="M1 2.5A1.5 1.5 0 0 1 2.5 1h11A1.5 1.5 0 0 1 15 2.5v4A1.5 1.5 0 0 1 13.5 8h-11A1.5 1.5 0 0 1 1 6.5v-4zm1.5-.5a.5.5 0 0 0-.5.5V4h4V2H2.5zm4 0V4h3V2h-3zm4 0V4h3V2.5a.5.5 0 0 0-.5-.5H10.5zM2 5v1.5a.5.5 0 0 0 .5.5H6V5H2zm4 0v2h3V5H6zm4 0v2h2.5a.5.5 0 0 0 .5-.5V5h-3z"/>
  <!-- Flèche d'import vers le bas -->
  <path d="M8 9a.5.5 0 0 1 .5.5v3.293l1.146-1.147a.5.5 0 0 1 .708.708l-2 2a.5.5 0 0 1-.708 0l-2-2a.5.5 0 0 1 .708-.708L7.5 12.793V9.5A.5.5 0 0 1 8 9z"/>
</svg>
